<svg t="1609746672914" class="icon" viewBox="0 0 1024 1024" version="1.1" xmlns="http://www.w3.org/2000/svg" p-id="2514" width="16" height="16"><path d="M827.181246 0.002835H196.813085A156.410691 156.410691 0 0 0 39.457314 154.995906v714.007715a156.410691 156.410691 0 0 0 157.355771 154.993071h630.368161A156.410691 156.410691 0 0 0 984.537016 869.003621V154.995906A156.410691 156.410691 0 0 0 827.181246 0.002835zM208.626581 191.854015h326.997577a43.001126 43.001126 0 1 1 0 86.002253H208.626581a43.001126 43.001126 0 1 1 0-86.002253z m619.027205 652.577534H208.626581a43.001126 43.001126 0 1 1 0-86.002253h619.027205a43.001126 43.001126 0 1 1 0 86.002253z m0-283.523911H208.626581a43.001126 43.001126 0 1 1 0-86.002253h619.027205a43.001126 43.001126 0 1 1 0 86.002253z m0 0" p-id="2515"></path></svg>
