<?xml version="1.0" standalone="no"?><!DOCTYPE svg PUBLIC "-//W3C//DTD SVG 1.1//EN" "http://www.w3.org/Graphics/SVG/1.1/DTD/svg11.dtd"><svg t="1565763172478" class="icon" viewBox="0 0 1024 1024" version="1.1" xmlns="http://www.w3.org/2000/svg" p-id="2055" xmlns:xlink="http://www.w3.org/1999/xlink" width="64" height="64"><defs><style type="text/css"></style></defs><path d="M615.4 211.3l66.2 66.2 169.7-169.7 73.9 73.9-169.7 169.7 66.2 66.2c0 28.5-23.1 51.6-51.6 51.6H615.4c-28.5 0-51.6-23.1-51.6-51.6V262.9c0-28.4 23.1-51.6 51.6-51.6z m-412 412.1c0-28.5 23.1-51.6 51.6-51.6h154.7c28.5 0 51.6 23.1 51.6 51.6v154.7c0 28.5-23.1 51.6-51.6 51.6l-66.2-66.2-169.7 169.6-73.8-73.8 169.7-169.7-66.3-66.2z m412-51.6h154.7c28.5 0 51.6 23.1 51.6 51.6l-66.2 66.2 169.7 169.7-73.9 73.8-169.7-169.7-66.2 66.2c-28.5 0-51.6-23.1-51.6-51.6V623.3c0-28.4 23.1-51.5 51.6-51.5zM173.8 107.9l169.7 169.7 66.2-66.2c28.5 0 51.6 23.1 51.6 51.6v154.7c0 28.5-23.1 51.6-51.6 51.6H255c-28.5 0-51.6-23.1-51.6-51.6l66.2-66.2L100 181.7l73.8-73.8z m213.7 361.3" p-id="2056"></path></svg>