<?xml version="1.0" standalone="no"?><!DOCTYPE svg PUBLIC "-//W3C//DTD SVG 1.1//EN" "http://www.w3.org/Graphics/SVG/1.1/DTD/svg11.dtd"><svg class="icon" width="64px" height="64.00px" viewBox="0 0 1024 1024" version="1.1" xmlns="http://www.w3.org/2000/svg"><path fill="#bebebe" d="M682.666667 0h227.555555a113.777778 113.777778 0 0 1 113.777778 113.777778v227.555555h-113.777778V170.666667a56.888889 56.888889 0 0 0-56.888889-56.888889h-170.666666V0zM341.333333 0v113.777778H170.666667a56.888889 56.888889 0 0 0-56.888889 56.888889v170.666666H0V113.777778a113.777778 113.777778 0 0 1 113.777778-113.777778h227.555555z m341.333334 1024v-113.777778h170.666666a56.888889 56.888889 0 0 0 56.888889-56.888889v-170.666666h113.777778v227.555555a113.777778 113.777778 0 0 1-113.777778 113.777778h-227.555555z m-341.333334 0H113.777778a113.777778 113.777778 0 0 1-113.777778-113.777778v-227.555555h113.777778v170.666666a56.888889 56.888889 0 0 0 56.888889 56.888889h170.666666v113.777778z"  /></svg>