<svg t="1598494549248" class="icon" viewBox="0 0 1024 1024" version="1.1" xmlns="http://www.w3.org/2000/svg" p-id="2919" width="64" height="64"><path d="M854.601143 288.694857a31.963429 31.963429 0 0 1 9.435428 22.674286v616.594286a31.963429 31.963429 0 0 1-32.036571 32.036571H192a31.963429 31.963429 0 0 1-32.036571-32.036571V96.036571c0-17.700571 14.336-32.036571 32.036571-32.036571h424.667429a32.182857 32.182857 0 0 1 22.674285 9.435429l215.259429 215.259428z m-64.365714 37.302857L601.965714 137.801143v188.196571h188.269715zM320 482.011429a8.045714 8.045714 0 0 0-8.045714 8.045714v47.908571c0 4.388571 3.657143 8.045714 8.045714 8.045715h384a8.045714 8.045714 0 0 0 8.045714-8.045715V490.057143a8.045714 8.045714 0 0 0-8.045714-8.045714h-384z m0 136.045714a8.045714 8.045714 0 0 0-8.045714 7.972571v47.981715c0 4.388571 3.657143 8.045714 8.045714 8.045714h184.027429A8.045714 8.045714 0 0 0 512 673.938286v-47.981715a8.045714 8.045714 0 0 0-8.045714-8.045714H320.073143z" p-id="2920"></path></svg>
