<svg t="1598494476611" class="icon" viewBox="0 0 1024 1024" version="1.1" xmlns="http://www.w3.org/2000/svg" p-id="2138" width="64" height="64"><path d="M518.71 251.72c-63.12 0-114.48 51.35-114.48 114.48 0 63.12 51.36 114.47 114.48 114.47s114.47-51.35 114.47-114.47c0-63.13-51.35-114.48-114.47-114.48z m0 159.27c-24.71 0-44.8-20.09-44.8-44.79s20.09-44.8 44.8-44.8c24.7 0 44.79 20.1 44.79 44.8s-20.09 44.79-44.79 44.79zM856.92 692.82H737.75c-16.77 20.15-33.94 39.65-50.61 58.06h125.83l91.09 161.24H138.29l106.38-161.24h106.58c-16.67-18.41-33.74-37.9-50.61-58.06h-97.05L20.7 970.17h993.01L856.92 692.82z" p-id="2139"></path><path d="M831.5 234.04c-17.1-40.43-41.58-76.73-72.74-107.89-31.17-31.17-67.47-55.64-107.9-72.74-41.88-17.71-86.34-26.7-132.15-26.7-45.82 0-90.28 8.99-132.16 26.7-40.43 17.1-76.73 41.57-107.9 72.74-31.16 31.16-55.63 67.46-72.74 107.89-17.71 41.88-26.69 86.34-26.69 132.16 0 45.01 17.01 97.43 52 160.24 26.22 47.05 62.54 99.54 107.98 156 76.61 95.21 152.01 168.34 155.18 171.4l24.33 23.52 24.32-23.52c3.17-3.06 78.57-76.19 155.19-171.4 45.43-56.46 81.75-108.95 107.97-156 34.99-62.81 52-115.23 52-160.24 0-45.82-8.98-90.28-26.69-132.16z m-86.3 258.04c-24.22 43.53-58.23 92.63-101.08 145.93-48.34 60.12-97.2 112.11-125.41 141.07-28.22-28.97-77.08-80.95-125.42-141.07-42.85-53.3-76.86-102.4-101.08-145.93-28.52-51.27-42.99-93.62-42.99-125.88 0-71.98 28.03-139.66 78.93-190.56 50.9-50.89 118.57-78.93 190.56-78.93 71.98 0 139.65 28.04 190.55 78.93 50.9 50.9 78.93 118.58 78.93 190.56 0 32.26-14.47 74.61-42.99 125.88z" p-id="2140"></path></svg>
