<svg t="1598494665132" class="icon" viewBox="0 0 1024 1024" version="1.1" xmlns="http://www.w3.org/2000/svg" p-id="4500" width="64" height="64"><path d="M677.647059 918.588235a1136.399059 1136.399059 0 0 0-150.588235 60.235294v-481.882353a1595.934118 1595.934118 0 0 1 240.941176-90.352941 287.171765 287.171765 0 0 1 120.470588 0v481.882353a867.870118 867.870118 0 0 0-210.823529 30.117647z m-150.588235-512a180.705882 180.705882 0 1 1 180.705882-180.705882 180.705882 180.705882 0 0 1-180.705882 180.705882z m-30.117648 554.164706a532.690824 532.690824 0 0 0-120.470588-42.164706 1926.866824 1926.866824 0 0 0-240.941176-30.117647v-481.882353a215.732706 215.732706 0 0 1 120.470588 0 2048 2048 0 0 1 240.941176 78.607059V960.752941z" p-id="4501"></path></svg>
