<svg t="1598494600543" class="icon" viewBox="0 0 1024 1024" version="1.1" xmlns="http://www.w3.org/2000/svg" p-id="3739" width="64" height="64"><path d="M934.142459 885.877199H818.518069c0.525979-3.692089 1.103124-7.372921 1.103124-11.212366v-98.148367c0-41.639353-31.936363-93.356224-74.28282-120.296807-53.012378-33.726126-144.573723-78.460979-209.878055-103.238292 66.228377-60.600193 89.991594-164.959006 89.991594-243.805772 0-75.571163-18.961864-135.006833-54.44603-175.536922 16.474206-5.523807 34.744315-8.527211 54.890144-8.527211 102.360296 0 158.255327 63.288418 158.255327 187.686637 0 77.629032-24.962531 162.797783-76.66303 207.080335-10.350742 11.7056-12.122085 33.463136-5.467525 52.363602 57.114812 19.015076 156.893306 66.481134 212.962299 102.342899 29.968545 19.166525 52.653197 56.529481 52.653198 82.21549v93.246731c0 19.789719-14.992459 35.830043-33.493836 35.830043z" p-id="3740"></path><path d="M417.792385 111.620194c108.321054 0 167.473269 66.617234 167.473269 197.555401 0 81.70793-26.41665 171.35467-81.129762 217.96422-10.954493 12.32163-12.828167 35.224246-5.78475 55.118342 60.440557 20.012799 166.033477 69.975724 225.366817 107.721397 31.712259 20.174482 55.719023 59.499116 55.719023 86.536912v98.148367c0 20.830421-15.866363 37.714973-35.444257 37.714973H91.810009c-19.576871 0-35.447327-16.884552-35.447327-37.714973v-98.148367c0-27.037796 24.006763-66.36243 55.720046-86.536912 57.974389-36.882002 159.868057-85.826737 220.99116-106.336864 7.733125-21.361517 6.854105-46.888913-3.823072-58.227146-53.270251-47.105854-78.9317-135.597281-78.9317-216.239949 0-118.624724 59.151191-197.555401 167.473269-197.555401" p-id="3741"></path></svg>
