<svg t="1600333184469" class="icon" viewBox="0 0 1298 1024" version="1.1" xmlns="http://www.w3.org/2000/svg" p-id="3096" width="64" height="64"><path d="M51.2 344.747 51.2 686.08c0 37.547 30.72 68.267 68.267 68.267l170.667 0L290.134 276.48 119.467 276.48C81.92 276.48 51.2 307.2 51.2 344.747zM631.467 71.68 358.4 232.107l0 570.027L631.467 962.56c37.547 0 68.267-30.72 68.267-68.267L699.734 143.36C699.733 102.4 669.013 71.68 631.467 71.68z" p-id="3097"></path><path d="M895.151 864.349c-14.242 0-28.484-9.495-33.232-23.737-7.121-18.99 2.374-37.979 21.363-45.1 116.311-45.1 189.896-154.29 189.896-280.096S999.594 280.42 883.283 235.319c-18.99-7.121-28.484-28.484-21.363-45.1 7.121-18.99 28.484-28.484 45.1-21.363 142.422 54.595 234.996 192.269 234.996 346.559s-92.574 289.591-234.996 346.559C904.646 864.349 899.898 864.349 895.151 864.349zM847.677 710.058c-14.242 0-28.484-9.495-33.232-26.111-4.747-18.99 4.747-37.979 23.737-45.1 54.595-16.616 92.574-66.463 92.574-123.432s-37.979-109.19-92.574-123.432c-18.99-4.747-28.484-26.111-23.737-45.1 4.747-18.99 26.111-28.484 45.1-23.737 83.079 23.737 142.422 104.443 142.422 192.269 0 90.2-56.969 166.159-142.422 192.269C854.798 707.685 852.425 710.058 847.677 710.058z" p-id="3098"></path></svg>
