<svg t="1573801024826" class="icon" viewBox="0 0 1024 1024" version="1.1" xmlns="http://www.w3.org/2000/svg" p-id="700" width="64" height="64"><path d="M911.701333 598.357333c-5.12-3.754667-24.234667-4.778667-27.989333 16.725334-0.682667 4.096-4.778667 5.802667-4.778667 5.802666s-11.605333 3.413333 2.730667 10.922667c2.048 1.024 0.341333 5.12 2.389333 5.802667 18.090667 5.802667 55.978667-19.456 27.648-39.253334zM783.018667 618.154667s-21.162667-9.898667-34.133334 15.018666c0 0-8.192 23.210667 12.629334 29.013334 18.432 4.778667 19.114667-4.096 17.066666-7.850667 0 0 17.408-5.802667 14.677334-18.773333 0 0 13.312-4.437333 6.485333-13.994667-1.365333-2.048-9.557333-4.437333-16.725333-3.413333zM802.816 475.477333s-17.749333 10.24-15.018667 42.666667c0 0-2.048 26.282667 1.365334 33.792 0 0 4.096 20.48 15.701333 30.037333 0 0 8.533333 4.437333 7.509333-22.528 0 0-7.168-14.677333-3.072-21.845333 4.096-7.168 55.296-26.965333 64.170667-20.48 8.874667 6.826667-9.216 27.306667-26.965333 32.426667-18.432 5.12-35.498667 17.749333-32.426667 28.330666 3.072 10.581333 19.797333 9.557333 33.109333 7.509334 13.312-2.389333 42.325333-14.677333 34.816-36.864 0 0 40.96-41.984 10.24-60.074667 0 0-1.365333-17.749333-33.450666-7.509333-31.744 10.24-36.864 11.605333-36.864 11.605333s-1.365333-24.917333-19.114667-17.066667zM655.018667 553.301333s30.037333-55.296 32.085333-64.853333c0 0-1.365333-7.168-11.264 3.413333 0 0-38.570667 54.613333-37.205333 79.872 1.365333 25.258667 44.032 18.773333 52.224 6.144 0 0-22.528 41.642667-28.672 53.930667-9.898667 16.384 6.144 32.768 23.552 8.874667l13.312-17.749334s3.413333 47.104 22.528 46.08c19.114667-1.024 9.557333-25.258667 9.557333-25.258666s-10.24-12.629333-7.850667-25.941334c0 0 37.205333-5.802667 32.426667-36.522666 0 0-1.365333-10.24-19.797333-0.341334 0 0-5.12 0.341333 0-6.144 0 0 9.216-7.168 7.168-17.408s5.12-18.773333 16.042666-25.258666c10.24-6.144 1.706667-19.114667-2.048-20.821334 0 0 3.413333-24.576-13.653333-20.821333-20.48 6.485333-22.186667 30.72-32.426667 44.032-6.144 8.192-40.277333 31.061333-54.613333 25.258667-0.682667-0.682667-3.072-2.048-1.365333-6.485334zM382.976 556.032s-22.528-2.730667-25.258667 23.552c-0.341333 20.821333 25.258667 16.384 33.450667 5.12 0 0 52.565333-11.264 62.122667-13.994667 0 0-77.482667 76.117333-41.642667 97.621334 35.84 21.504 57.685333-2.389333 57.685333-2.389334s28.672-9.557333 51.2-23.552c0 0-9.898667 28.672 24.576 10.922667 34.133333-17.749333 16.384-51.2-2.730666-61.098667-19.114667-9.898667-38.912 5.802667-30.037334 25.941334 0 0-24.917333 25.258667-65.877333 19.114666 0 0-13.994667-2.730667 4.096-27.306666 0 0 41.301333-53.930667 67.584-59.733334 0 0 62.122667-0.682667 52.906667-31.402666-7.850667-27.648-90.794667-2.389333-93.525334-1.365334-16.384 5.802667-59.733333 26.965333-94.549333 38.570667z" p-id="701"></path><path d="M774.485333 442.368c15.018667-32.085333 3.413333-112.64-2.048-121.856-29.696-50.517333-106.154667-53.589333-163.498666-3.413333 0 0-64.853333-206.506667-303.445334-149.504-24.917333 5.802667-129.706667 61.098667-122.88 251.562666-277.162667 60.074667-173.738667 244.053333-48.810666 283.648H1024v-34.816H139.946667c-43.690667 0-169.642667-128.341333 47.786666-225.962666h14.677334C201.386667 154.624 518.826667 136.874667 585.728 346.794667h31.061333c28.672-42.666667 148.48-55.296 137.216 63.146666 0 0-49.493333 46.08-59.050666 58.709334-4.778667 6.144 5.12 13.312 18.773333 1.024l30.378667-26.282667s26.624 6.144 30.378666-1.024z" p-id="702"></path><path d="M478.890667 428.373333s-50.176 7.168-24.576 45.056c0 0-2.730667 18.773333-23.893334 37.888 0 0-5.802667 10.24 7.850667 8.533334 0 0 26.624-23.893333 33.450667-30.378667 0 0 38.570667-7.850667 37.205333-34.816 0.341333-8.533333 11.605333-30.037333-30.037333-26.282667z" p-id="703"></path><path d="M782.336 813.738667c0-17.749333 15.36-26.624 50.176-30.378667 0-10.581333-3.413333-20.48-16.725333-20.48-9.557333 0-18.090667 4.437333-24.576 8.533333v-11.605333c7.509333-4.778667 13.653333-8.533333 26.624-8.533333 19.797333 0 28.330667 13.312 28.330666 33.450666v50.176h-12.288v-9.898666h-0.341333c-7.850667 6.485333-17.066667 11.605333-26.965333 11.605333-13.994667 0-24.234667-8.192-24.234667-22.869333z m50.176 1.024V791.893333c-27.306667 3.413333-36.864 9.898667-36.864 20.48 0 9.216 6.144 12.970667 14.336 12.970667 7.850667 0.341333 14.336-3.413333 22.528-10.581333zM157.013333 795.989333l-34.133333-70.314666h15.36l14.677333 32.426666c3.754667 8.533333 7.168 16.384 11.264 24.917334h0.682667c4.096-8.533333 7.850667-16.725333 11.264-24.917334l15.018667-32.426666h15.018666l-34.474666 69.973333v44.714667H157.013333v-44.373334z" p-id="704"></path><path d="M195.242667 810.666667v-51.541334h13.653333V808.96c0 15.018667 4.437333 21.504 15.36 21.504 8.533333 0 14.336-4.096 21.845333-13.653333v-57.685334h13.653334v81.237334h-11.264l-1.024-12.629334h-0.341334c-7.509333 8.874667-15.701333 14.677333-26.965333 14.677334-17.066667 0-24.917333-11.264-24.917333-31.744zM272.725333 759.125333h11.264l1.365334 11.605334h0.341333c7.850667-7.509333 16.042667-13.653333 27.306667-13.653334 17.066667 0 24.917333 10.922667 24.917333 31.744v51.541334h-13.653333v-49.834667c0-15.36-4.778667-21.845333-15.36-21.845333-8.533333 0-13.994667 4.096-22.186667 12.288v59.050666h-13.653333v-80.896z" p-id="705"></path><path d="M329.728 874.837333l2.730667-10.581333c2.048 0.682667 4.778667 1.365333 7.509333 1.365333 8.192 0 10.24-6.144 10.24-16.042666v-90.453334h13.653333v90.453334c0 16.725333-6.144 26.965333-22.186666 26.965333-4.778667 0.341333-9.216-0.682667-11.946667-1.706667z m18.090667-141.312c0-5.461333 4.096-8.874667 9.557333-8.874666 5.12 0 9.557333 3.413333 9.557333 8.874666 0 5.12-4.096 8.874667-9.557333 8.874667-5.802667 0-9.557333-3.754667-9.557333-8.874667zM370.688 733.525333c0-5.461333 4.096-8.874667 9.557333-8.874666s9.557333 3.413333 9.557334 8.874666c0 5.12-4.096 8.874667-9.557334 8.874667s-9.557333-3.754667-9.557333-8.874667z m2.730667 25.6h13.653333v81.237334h-13.653333v-81.237334zM447.488 819.541333l8.533333-9.898666c8.192 8.533333 19.797333 14.336 31.744 14.336 15.018667 0 24.234667-7.509333 24.234667-18.773334 0-11.605333-8.192-15.36-19.114667-20.48l-16.725333-7.168c-10.581333-4.437333-23.210667-12.629333-23.210667-29.354666 0-17.749333 15.36-30.72 36.181334-30.72 13.653333 0 25.6 5.802667 33.792 14.336l-7.850667 9.216c-7.168-6.485333-15.36-10.922667-26.282667-10.922667-12.970667 0-21.504 6.485333-21.504 17.066667 0 11.264 9.898667 15.36 19.114667 19.114666l16.384 7.168c13.312 5.802667 23.552 13.653333 23.552 30.72 0 18.090667-15.018667 32.768-38.912 32.768-16.042667-0.341333-30.037333-6.826667-39.936-17.408z" p-id="706"></path><path d="M525.994667 794.624c0-26.965333 17.749333-42.666667 37.546666-42.666667s37.546667 15.701333 37.546667 42.666667-17.749333 42.325333-37.546667 42.325333-37.546667-15.36-37.546666-42.325333z m61.44 0c0-18.773333-9.557333-31.402667-23.552-31.402667-13.994667 0-23.552 12.629333-23.552 31.402667 0 18.773333 9.557333 31.061333 23.552 31.061333 13.994667 0 23.552-12.629333 23.552-31.061333z" p-id="707"></path><path d="M642.730667 726.698667c-3.072-1.365333-6.144-2.048-9.216-2.048-7.850667 0-11.605333 5.461333-11.605334 16.042666v12.970667h17.066667v10.922667h-17.066667v70.314666h-13.653333V764.586667H597.333333v-10.24l10.922667-0.682667V740.693333c0-16.384 7.509333-26.624 23.552-26.624 4.778667 0 9.557333 1.024 13.653333 2.730667l-2.730666 9.898667z" p-id="708"></path><path d="M649.898667 809.301333V764.586667h-12.288v-10.24l12.629333-0.682667 1.706667-22.869333h11.264v22.869333h21.845333v10.922667h-21.845333v45.397333c0 9.898667 3.072 15.701333 12.629333 15.701333 2.730667 0 6.485333-1.024 9.216-2.048l2.730667 10.24c-4.778667 1.365333-9.898667 3.072-15.018667 3.072-17.066667-0.341333-22.869333-11.264-22.869333-27.648z" p-id="709"></path><path d="M674.133333 753.322667h13.994667l12.288 47.104c1.706667 7.850667 3.413333 15.018667 4.778667 22.869333h0.682666c1.706667-7.509333 3.413333-15.018667 5.461334-22.869333l12.629333-47.104h13.312l12.629333 47.104c2.048 7.850667 3.754667 15.018667 5.802667 22.869333h0.682667c1.706667-7.509333 3.413333-15.018667 5.12-22.869333l11.946666-47.104h12.970667l-21.845333 81.237333h-17.066667l-11.946667-43.690667c-2.048-7.509333-3.754667-15.018667-5.461333-23.210666h-0.682667c-1.706667 8.192-3.413333 15.701333-5.461333 23.552l-11.264 43.690666h-16.042667l-22.528-81.578666zM855.381333 753.322667h11.264l1.365334 14.677333h0.341333c5.802667-10.24 13.994667-17.066667 23.210667-17.066667 3.754667 0 6.144 0.341333 8.533333 1.706667l-2.389333 11.946667c-2.730667-1.024-4.778667-1.365333-7.850667-1.365334-6.826667 0-15.018667 4.778667-20.48 18.773334v52.224h-13.653333v-80.896z" p-id="710"></path><path d="M890.197333 793.941333c0-26.282667 17.749333-42.666667 36.522667-42.666666 20.48 0 32.426667 15.018667 32.426667 38.229333 0 3.072-0.341333 5.802667-0.682667 7.850667h-54.613333c1.024 17.408 11.605333 28.330667 26.965333 28.330666 7.850667 0 14.336-2.389333 20.48-6.485333l4.778667 8.874667c-7.168 4.778667-15.701333 8.533333-26.965334 8.533333-21.504 0-38.912-15.701333-38.912-42.666667z m57.002667-6.485333c0-16.384-7.509333-25.258667-20.138667-25.258667-11.605333 0-21.845333 9.216-23.210666 25.258667h43.349333z" p-id="711"></path></svg>
