<?xml version="1.0" standalone="no"?><!DOCTYPE svg PUBLIC "-//W3C//DTD SVG 1.1//EN" "http://www.w3.org/Graphics/SVG/1.1/DTD/svg11.dtd"><svg class="icon" width="64px" height="64.00px" viewBox="0 0 1024 1024" version="1.1" xmlns="http://www.w3.org/2000/svg"><path d="M885.76 481.28c0-184.32-143.36-332.8-327.68-337.92-184.32 0-332.8 143.36-337.92 327.68 0 168.96 117.76 307.2 281.6 332.8v61.44H332.8V921.6h445.44v-56.32h-174.08v-56.32c158.72-25.6 281.6-163.84 281.6-327.68z m-332.8 276.48c-153.6 0-271.36-128-271.36-276.48 0-153.6 128-271.36 276.48-271.36 148.48 0 271.36 122.88 271.36 276.48 0 148.48-122.88 271.36-276.48 271.36zM552.96 276.48c-112.64 0-204.8 97.28-204.8 209.92s92.16 204.8 209.92 204.8c112.64 0 204.8-92.16 204.8-204.8-5.12-117.76-97.28-209.92-209.92-209.92z m-81.92 261.12c-46.08 0-81.92-35.84-81.92-81.92s35.84-81.92 81.92-81.92c46.08 0 81.92 35.84 81.92 81.92s-35.84 81.92-81.92 81.92z" /></svg>
