<svg t="1584002609406" class="icon" viewBox="0 0 1024 1024" version="1.1" xmlns="http://www.w3.org/2000/svg" p-id="1945" width="64" height="64"><path d="M927.5 764.9l-75.721-486.48C822.858 191.6 773.599 92 649.639 92h-269.28c-66.361 0-155.399 32.46-203.04 189.84l-80.88 482.82S92 792.56 92 807.44C92 876.199 145.7 932 212 932h599.881c66.361 0 120.121-55.801 120.121-124.56 0-14.761-4.5-42.54-4.5-42.54zM387.92 343.639c3.84 0 7.2 1.44 10.98 2.1 5.1-55.561 52.62-99.36 111.18-99.36 55.5 0 101.28 39.241 110.34 90.601 3.84-0.601 7.801-1.14 11.82-1.14 36.54 0 66.18 28.74 66.18 64.26s-29.58 64.26-66.18 64.32H387.92c-34.38 0-62.16-27.12-62.16-60.42s27.721-60.361 62.16-60.361z m375.3 512.88H260.84c-29.7 0-53.76-22.38-53.76-50.039 0-27.54 24-49.98 53.76-49.98h502.32c29.7 0 53.76 22.441 53.76 49.98 0 27.66-24 50.039-53.7 50.039z" p-id="1946"></path></svg>
