<svg t="1591339725310" class="icon" viewBox="0 0 1024 1024" version="1.1" xmlns="http://www.w3.org/2000/svg" p-id="1746" width="64" height="64"><path d="M230.4 230.4c72.533333-72.533333 170.666667-115.2 281.6-115.2 119.466667 0 234.666667 55.466667 307.2 145.066667L682.666667 396.8h341.333333v-341.333333l-123.733333 123.733333C806.4 68.266667 665.6 0 512 0 371.2 0 243.2 55.466667 149.333333 149.333333 81.066667 217.6 34.133333 302.933333 12.8 396.8H128c21.333333-64 55.466667-119.466667 102.4-166.4zM793.6 793.6c-72.533333 72.533333-170.666667 115.2-281.6 115.2-119.466667 0-234.666667-55.466667-307.2-145.066667L341.333333 627.2H0v341.333333l123.733333-123.733333C217.6 955.733333 358.4 1024 512 1024c140.8 0 268.8-55.466667 362.666667-149.333333 68.266667-68.266667 115.2-153.6 136.533333-247.466667h-119.466667c-17.066667 64-51.2 119.466667-98.133333 166.4z" p-id="1747"></path></svg>
