<?xml version="1.0" standalone="no"?><!DOCTYPE svg PUBLIC "-//W3C//DTD SVG 1.1//EN" "http://www.w3.org/Graphics/SVG/1.1/DTD/svg11.dtd"><svg t="1567560050115" class="icon" viewBox="0 0 1024 1024" version="1.1" xmlns="http://www.w3.org/2000/svg" p-id="3104" xmlns:xlink="http://www.w3.org/1999/xlink" width="64" height="64"><defs><style type="text/css"></style></defs><path d="M669.461 439.177a47.087 47.087 0 0 1-47.087-47.086 111.831 111.831 0 0 0-223.662 0 47.087 47.087 0 1 1-94.174 0 206.005 206.005 0 1 1 412.01 0 47.087 47.087 0 0 1-47.087 47.086z" p-id="3105"></path><path d="M813.665 439.177a47.087 47.087 0 0 1-47.087-47.086 256.034 256.034 0 1 0-512.07 0 47.087 47.087 0 0 1-94.173 0 350.208 350.208 0 1 1 700.416 0 47.087 47.087 0 0 1-47.086 47.086z" p-id="3106"></path><path d="M924.024 601.038H559.102v-161.86a47.087 47.087 0 0 0-94.174 0v161.86H100.005a58.859 58.859 0 0 0-58.858 58.859v263.392a58.859 58.859 0 0 0 58.858 58.858h824.02a58.859 58.859 0 0 0 58.858-58.858V659.897a58.859 58.859 0 0 0-58.859-58.859zM186.321 838.68a47.087 47.087 0 1 1 47.087-47.086 47.087 47.087 0 0 1-47.087 47.086z m142.703 0a47.087 47.087 0 1 1 47.086-47.086 47.087 47.087 0 0 1-47.086 47.086z" p-id="3107"></path></svg>