<svg t="1593486428348" class="icon" viewBox="0 0 1024 1024" version="1.1" xmlns="http://www.w3.org/2000/svg" p-id="5551" width="64" height="64"><path d="M780.8 706.1V138.7c0-41.2-33.4-74.7-74.7-74.7H138.7C97.4 64 64 97.4 64 138.7v567.5c0 41.2 33.4 74.7 74.7 74.7h567.5c41.2-0.1 74.6-33.5 74.6-74.8zM601.6 295.5c0 20.6-16.7 37.3-37.3 37.3H280.5c-20.6 0-37.3-16.7-37.3-37.3v-14.9c0-20.6 16.7-37.3 37.3-37.3h283.7c20.6 0 37.3 16.7 37.3 37.3v14.9z" p-id="5552"></path><path d="M885.3 198.4h-14.9v560c0 61.9-50.1 112-112 112H243.2v14.9c0 41.2 33.4 74.7 74.7 74.7h492.8c82.5 0 149.3-66.9 149.3-149.3V273.1c0-41.3-33.4-74.7-74.7-74.7z" p-id="5553"></path></svg>
