<?xml version="1.0" standalone="no"?><!DOCTYPE svg PUBLIC "-//W3C//DTD SVG 1.1//EN" "http://www.w3.org/Graphics/SVG/1.1/DTD/svg11.dtd"><svg class="icon" width="64px" height="64.00px" viewBox="0 0 1024 1024" version="1.1" xmlns="http://www.w3.org/2000/svg"><path d="M286.8 364.69c2 16.52 10.4 31.07 22.77 39.51-0.18 3.54-0.58 7-0.58 10.63-2.62 80.36 33.78 155.61 94.16 194.65l1.59 1s27.92 29.4 104.36 29.4h0.09c74.83 0 104-29.4 104-29.4C674.47 571.83 711.61 496 709 415c0-3.47-0.35-6.71-0.52-10.15 12.43-8.61 20.8-23.36 22.73-40.06V270.8l78.57-33.25A16 16 0 0 1 832 252.28V390a16 16 0 0 0 16 16 16 16 0 0 0 16-16V214.58l0.49-0.2-0.49-0.21V214h-0.41L512 64 154 214l132.8 56.71zM509 594.9c-80 1.27-147.81-68-157.12-160.54 50.63 25.75 104.84 40.6 160 43.81 53.28-3.08 105.59-17.79 154.21-43.36-9.53 92.26-77.28 161.3-157.09 160.09zM338.16 297.81l150.25 58.94a64 64 0 0 0 47.12-0.15l147-58.77v53.92c0 6.29-18.67 14.39-29.36 22.76a73 73 0 0 1-7.91 5.68c-42.06 25.88-88.87 39.53-136.43 39.81-47.55-0.52-94.28-14.38-136.24-40.41q-3.67-2.4-7.19-5.1c-11.2-8.55-27.28-16.74-27.28-22.76zM691.55 645.61a32 32 0 0 0-47.46 12.44l-88.64 187.86-13.75-46.74a16 16 0 0 1 1.08-11.74l20.53-40.62a16 16 0 0 0-3-18.59l-37.77-37.36a16 16 0 0 0-22.5 0l-37.78 37.33a16 16 0 0 0-3 18.6l20.36 40.26a16 16 0 0 1 0.87 12.4l-16.3 47.69-86.14-188.73a32 32 0 0 0-47.45-12.94C266.52 690.3 128 797.85 128 889.79c0 36.49 12.93 70.19 44.56 70.19h678.75c31.43 0 44.69-33.43 44.69-69.7 0-89.41-140.2-199.1-204.45-244.67z" /></svg>
