<svg t="1567581778395" class="icon" viewBox="0 0 1024 1024" version="1.1" xmlns="http://www.w3.org/2000/svg" p-id="3539" width="64" height="64"><path d="M512 0c282.697143 0 512 228.937143 512 511.707429A512.146286 512.146286 0 0 1 512 1024c-282.697143 0-512-228.937143-512-511.707429A512.146286 512.146286 0 0 1 512 0z m77.750857 299.300571v54.418286a7.314286 7.314286 0 0 0 7.314286 7.314286h59.684571l-66.998857-61.732572z m58.075429 438.198858c12.8 0 22.674286-9.216 22.162285-21.065143v-21.065143a64.073143 64.073143 0 0 1-72.484571 2.048l-3.876571 3.657143a10.605714 10.605714 0 0 1-14.848-0.512 9.142857 9.142857 0 0 1 0.438857-12.946286l3.876571-3.584a53.613714 53.613714 0 0 1 6.582857-72.484571l80.896-75.117715V380.050286H579.218286a10.313143 10.313143 0 0 1-7.094857-2.706286 8.923429 8.923429 0 0 1-2.925715-6.582857V285.988571H308.589714c-12.726857 0-22.674286 9.289143-22.674285 21.138286v409.380572c0 11.849143 9.947429 21.065143 22.674285 21.065142h339.382857zM390.144 438.857143h164.790857a18.285714 18.285714 0 1 1 0 36.571428H390.144a18.285714 18.285714 0 1 1 0-36.571428z m0 96.256h164.790857a18.285714 18.285714 0 1 1 0 36.571428H390.144a18.285714 18.285714 0 1 1 0-36.571428z m271.579429 143.286857l83.017142-77.165714-57.563428-53.467429L604.16 624.859429a37.668571 37.668571 0 0 0-11.702857 26.770285c0 10.24 3.949714 19.529143 11.702857 26.770286 15.433143 13.897143 42.057143 13.897143 57.563429 0z m197.632-183.588571a36.571429 36.571429 0 0 0 0-53.540572 42.788571 42.788571 0 0 0-28.818286-11.337143 41.691429 41.691429 0 0 0-28.745143 11.337143l-100.205714 93.110857 57.563428 53.467429 100.205715-93.110857z" p-id="3540"></path></svg>
