<?xml version="1.0" standalone="no"?><!DOCTYPE svg PUBLIC "-//W3C//DTD SVG 1.1//EN" "http://www.w3.org/Graphics/SVG/1.1/DTD/svg11.dtd"><svg class="icon" width="64px" height="64.00px" viewBox="0 0 1024 1024" version="1.1" xmlns="http://www.w3.org/2000/svg"><path d="M384 469.333333a170.666667 170.666667 0 1 0-170.666667-170.666666 170.666667 170.666667 0 0 0 170.666667 170.666666zM725.333333 554.666667a128 128 0 1 0-128-128 128 128 0 0 0 128 128zM896 853.333333a42.666667 42.666667 0 0 0 42.666667-42.666666 213.333333 213.333333 0 0 0-343.893334-168.533334A298.666667 298.666667 0 0 0 85.333333 853.333333a42.666667 42.666667 0 0 0 42.666667 42.666667h512a42.666667 42.666667 0 0 0 42.666667-42.666667" /></svg>
