<?xml version="1.0" standalone="no"?><!DOCTYPE svg PUBLIC "-//W3C//DTD SVG 1.1//EN" "http://www.w3.org/Graphics/SVG/1.1/DTD/svg11.dtd"><svg t="1567497414688" class="icon" viewBox="0 0 1024 1024" version="1.1" xmlns="http://www.w3.org/2000/svg" p-id="5264" xmlns:xlink="http://www.w3.org/1999/xlink" width="64" height="64"><defs><style type="text/css"></style></defs><path d="M475.819 477.525c21.845 15.36 51.2 15.36 73.045 0l442.027-257.024c8.192-5.802 10.24-17.066 4.778-25.258-1.706-2.731-4.096-4.779-7.168-6.144L540.672 17.067c-18.09-8.875-38.912-8.875-57.003 0L36.181 189.099c-9.216 4.437-12.97 15.36-8.533 24.234 1.365 2.731 3.413 5.12 6.144 7.168l442.027 257.024zM988.5 663.893L867.67 603.82 589.141 799.06c-22.869 15.019-49.493 22.87-76.8 22.87-27.648 0-53.93-7.851-76.8-22.87L157.013 603.82 35.84 663.893c-9.216 4.438-12.97 15.36-8.533 24.235 1.365 2.73 3.413 5.12 6.144 7.168l442.026 312.661c21.846 15.36 51.2 15.36 73.046 0l442.026-312.661c8.192-5.803 10.24-17.067 4.779-25.259-1.365-2.73-3.755-4.778-6.827-6.144z m0-245.418L867.67 358.4 589.141 520.192c-22.869 15.019-49.493 22.87-76.8 22.87-27.648 0-53.93-7.851-76.8-22.87L157.013 358.4 35.84 418.475c-9.216 4.437-12.97 15.36-8.533 24.234 1.365 2.731 3.413 5.12 6.144 7.168l421.888 292.864c34.474 22.87 80.554 22.87 117.077-2.389l418.475-290.475c8.192-5.802 10.24-17.066 4.778-25.258-1.706-2.731-4.096-4.779-7.168-6.144z" p-id="5265"></path></svg>