<svg t="1590373485861" class="icon" viewBox="0 0 1031 1024" version="1.1" xmlns="http://www.w3.org/2000/svg" p-id="2895" width="64" height="64"><path d="M0 0m41.361077 0l370.996328 0q41.361077 0 41.361077 41.361077l0 370.996328q0 41.361077-41.361077 41.361077l-370.996328 0q-41.361077 0-41.361077-41.361077l0-370.996328q0-41.361077 41.361077-41.361077Z" p-id="2896"></path><path d="M577.801714 0m41.361077 0l370.996328 0q41.361077 0 41.361077 41.361077l0 370.996328q0 41.361077-41.361077 41.361077l-370.996328 0q-41.361077 0-41.361077-41.361077l0-370.996328q0-41.361077 41.361077-41.361077Z" p-id="2897"></path><path d="M0 570.281518m41.361077 0l370.996328 0q41.361077 0 41.361077 41.361077l0 370.996328q0 41.361077-41.361077 41.361077l-370.996328 0q-41.361077 0-41.361077-41.361077l0-370.996328q0-41.361077 41.361077-41.361077Z" p-id="2898"></path><path d="M804.660955 571.534884c125.336597 0 226.859241 101.522644 226.859241 225.605875 0 125.336597-101.522644 226.859241-226.859241 226.859241s-226.859241-101.522644-226.859241-226.859241c0-124.083231 101.522644-225.605875 226.859241-225.605875z m0 70.188494c86.482252 0 156.670747 70.188494 156.670746 155.417381 0 86.482252-70.188494 156.670747-156.670746 156.670747s-155.417381-70.188494-155.417381-156.670747c0-85.228886 68.935129-155.417381 155.417381-155.417381z" p-id="2899"></path></svg>
