<svg t="1597283028120" class="icon" viewBox="0 0 1024 1024" version="1.1" xmlns="http://www.w3.org/2000/svg" p-id="1171" width="64" height="64"><path d="M500.026 449.352v0.01l502.89 178.769c16.88 6.272 25.31 24.039 18.982 39.72-2.942 7.942-9.033 14.36-16.87 17.776l-190.822 84.68c-14.723 6.235-26.434 17.846-32.686 32.406l-81.185 191.315c-6.318 15.681-25.301 23.005-41.116 16.733-8.43-3.137-14.758-10.46-17.918-18.818l-181.344-502.87a30.323 30.323 0 0 1 1.014-23.808c3.574-7.477 10.052-13.214 17.969-15.913 6.319-3.136 13.702-3.136 21.086 0zM415 11c228.646 0 414 185.354 414 414 0 35.996-4.594 70.92-13.228 104.215l-82.546-29.343c5.636-24.044 8.616-49.11 8.616-74.872C741.842 244.49 595.51 98.158 415 98.158S88.158 244.49 88.158 425 234.49 751.842 415 751.842c35.807 0 70.27-5.758 102.512-16.399l29.584 82.036C505.61 831.436 461.189 839 415 839 186.354 839 1 653.646 1 425S186.354 11 415 11z m-0.5 174C546.772 185 654 292.228 654 424.5c0 15.518-1.476 30.691-4.295 45.387l-180.239-64.072v-0.011c-9.657-4.102-19.314-4.102-27.579 0-10.354 3.53-18.827 11.033-23.5 20.812a39.659 39.659 0 0 0-1.525 30.604l0.198 0.534 70.305 194.96C464.39 660.044 439.907 664 414.5 664 282.228 664 175 556.772 175 424.5S282.228 185 414.5 185z" p-id="1172"></path></svg>
