<svg t="1593485740974" class="icon" viewBox="0 0 1024 1024" version="1.1" xmlns="http://www.w3.org/2000/svg" p-id="3838" width="64" height="64"><path d="M176.542 549.022c-24.163-153.561 58.88-308.756 207.222-367.459 109.902-43.54 228.43-22.725 312.34 39.463l-71.405 117.465 320.236-1.24L830.484 0 771.86 96.433C648.212 15.104 479.665-11.48 332.07 46.946 127.586 127.902 9.886 337.29 33.122 549.022h143.42z m670.916-84.047c24.143 153.56-58.88 308.775-207.202 367.458-101.08 40.054-212.54 24.97-298.2-28.987 16.305-26.9 64.511-106.2 64.511-106.2l-344.379-20.54L207.911 1024l61.106-100.49c123.628 81.33 275.298 102.006 422.892 43.56 204.445-80.995 322.166-290.344 298.93-502.056h-143.4v-0.04z" p-id="3839"></path></svg>
