<?xml version="1.0" standalone="no"?><!DOCTYPE svg PUBLIC "-//W3C//DTD SVG 1.1//EN" "http://www.w3.org/Graphics/SVG/1.1/DTD/svg11.dtd"><svg t="1565599826706" class="icon" viewBox="0 0 1024 1024" version="1.1" xmlns="http://www.w3.org/2000/svg" p-id="7422" xmlns:xlink="http://www.w3.org/1999/xlink" width="64" height="64"><defs><style type="text/css"></style></defs><path d="M224 1024H96c-38.4 0-64-25.6-64-64V64C32 25.6 57.6 0 96 0h128c38.4 0 64 25.6 64 64v896c0 38.4-25.6 64-64 64z m704 0H800c-38.4 0-64-25.6-64-64V64c0-38.4 25.6-64 64-64h128c38.4 0 64 25.6 64 64v896c0 38.4-25.6 64-64 64z" fill="#bebebe" p-id="7423"></path></svg>