<svg t="1611381941988" class="icon" viewBox="0 0 1024 1024" version="1.1" xmlns="http://www.w3.org/2000/svg" p-id="3288" width="16" height="16"><path d="M510.208 64.576A477.632 477.632 0 0 0 32.64 542.208a477.632 477.632 0 0 0 477.632 477.632 477.632 477.632 0 0 0 477.632-477.632A477.632 477.632 0 0 0 510.208 64.64z m0 891.648a414.08 414.08 0 0 1 0-828.032 414.08 414.08 0 0 1 0 828.032z m207.04-382.208h-207.04V367.04a16 16 0 0 0-15.872-15.936h-31.872a16 16 0 0 0-15.872 15.936v254.72a16 16 0 0 0 15.872 15.936h254.72a16 16 0 0 0 16-15.936v-31.808a15.872 15.872 0 0 0-16-15.936z" p-id="3289"></path></svg>
