<svg t="1611381887369" class="icon" viewBox="0 0 1024 1024" version="1.1" xmlns="http://www.w3.org/2000/svg" p-id="2534" width="16" height="16"><path d="M933.4678 1024a37.374542 37.374542 0 0 1-36.760166-37.886522 348.402412 348.402412 0 0 0-112.430815-255.785225 384.855391 384.855391 0 0 0-123.08-78.435341 413.475074 413.475074 0 0 0-303.143377 0c-45.463827 17.919301-87.241398 44.542263-123.08 78.435341a351.115906 351.115906 0 0 0-112.482013 255.785225 36.65777 36.65777 0 0 1-44.542263 27.544525A37.374542 37.374542 0 0 1 51.223808 986.113478a420.796389 420.796389 0 0 1 36.760166-170.898935 432.213544 432.213544 0 0 1 99.170533-139.053777 452.743943 452.743943 0 0 1 146.989467-92.873178l11.058769-4.147038 14.693827-5.682979-13.260283-8.70366C209.220846 470.549585 171.897502 279.273844 263.183542 137.557771c91.337238-141.664875 276.776406-180.216972 414.191846-86.012645 137.415441 94.153128 174.738785 285.37767 83.452745 427.093743a303.604159 303.604159 0 0 1-83.452745 86.012646l-13.260283 8.70366 14.693827 5.734177 11.058769 4.147038a452.743943 452.743943 0 0 1 146.938269 92.873178 432.213544 432.213544 0 0 1 99.221731 139.053777A420.796389 420.796389 0 0 1 972.787867 986.113478a37.374542 37.374542 0 0 1-36.760166 37.886522h-2.559901zM511.289065 75.147405a226.14158 226.14158 0 0 0-161.324908 68.605325c-89.084526 91.644426-89.289318 240.374625-0.460782 332.275041a224.34965 224.34965 0 0 0 161.78569 69.014908 226.14158 226.14158 0 0 0 161.273711-68.605324c89.084526-91.644426 89.289318-240.374625 0.460782-332.275041a224.34965 224.34965 0 0 0-161.785691-69.014909z" p-id="2535"></path></svg>
